<?xml version="1.0" standalone="no"?>
<!DOCTYPE svg PUBLIC "-//W3C//DTD SVG 20010904//EN"
 "http://www.w3.org/TR/2001/REC-SVG-20010904/DTD/svg10.dtd">
<svg version="1.0" xmlns="http://www.w3.org/2000/svg"
 width="500.000000pt" height="500.000000pt" viewBox="0 0 500.000000 500.000000"
 preserveAspectRatio="xMidYMid meet">
<metadata>
Created by potrace 1.11, written by Peter Selinger 2001-2013
</metadata>
<g transform="translate(0.000000,500.000000) scale(0.100000,-0.100000)"
fill="#000000" stroke="none">
<path d="M1829 4356 c-2 -2 -22 -6 -43 -9 -109 -14 -235 -98 -281 -187 -52
-98 -54 -247 -6 -344 53 -108 111 -155 318 -260 191 -98 236 -142 227 -226 -9
-79 -77 -121 -197 -122 -88 0 -183 21 -300 68 -49 20 -91 33 -95 30 -3 -4 -6
-62 -6 -131 l-1 -125 51 -20 c108 -40 179 -53 304 -56 198 -5 327 35 422 129
141 139 138 390 -6 525 -55 52 -105 83 -265 163 -73 37 -144 78 -158 91 -71
65 -62 168 19 218 59 36 206 22 349 -33 l67 -25 46 111 c25 61 45 111 43 112
-18 11 -120 48 -182 65 -72 20 -292 39 -306 26z"/>
<path d="M2570 3665 l0 -675 143 0 143 0 -1 231 c0 127 2 234 5 239 3 4 61 10
130 13 171 7 238 23 326 79 126 79 184 197 184 370 0 174 -68 293 -206 359
-102 49 -162 57 -456 58 l-268 2 0 -676z m544 417 c63 -28 90 -72 94 -153 7
-117 -47 -191 -157 -214 -45 -10 -191 -14 -192 -6 -6 35 -2 388 4 392 5 4 54
5 108 3 70 -2 112 -9 143 -22z"/>
<path d="M2217 1764 c-1 -1 -22 -5 -45 -9 -194 -29 -371 -154 -452 -319 -63
-129 -75 -187 -74 -371 1 -130 5 -175 23 -240 58 -217 175 -349 366 -412 71
-23 97 -26 230 -27 177 -1 223 4 371 39 126 30 112 -18 110 382 l-1 348 -268
3 -268 2 3 -117 3 -118 112 -1 c62 -1 119 -4 128 -7 12 -5 14 -29 12 -144 l-2
-138 -55 -8 c-30 -5 -94 -7 -141 -5 -220 10 -332 157 -332 438 0 201 61 332
193 415 103 65 275 72 435 17 l86 -30 14 31 c7 18 20 48 28 67 40 92 49 122
41 130 -15 13 -134 49 -214 64 -61 12 -293 19 -303 10z"/>
<path d="M440 1075 l0 -676 143 3 142 3 0 237 0 237 60 45 c33 24 61 43 62 42
2 -1 81 -128 176 -282 l173 -279 162 -3 c89 -1 162 0 162 2 0 3 -106 172 -235
377 l-235 372 33 41 c50 62 119 149 148 187 84 107 264 337 277 352 14 16 7
17 -145 17 l-160 0 -184 -232 c-102 -128 -206 -263 -233 -300 -26 -37 -51 -70
-54 -72 -4 -2 -7 133 -7 300 l1 304 -143 0 -143 0 0 -675z"/>
<path d="M3070 1075 l0 -675 128 0 128 0 -1 392 c-1 216 -5 456 -8 533 -7 159
-10 163 61 -70 22 -71 68 -220 102 -330 34 -110 66 -213 70 -230 7 -27 36
-121 77 -248 l15 -48 131 3 132 3 26 80 c15 44 93 280 173 524 81 245 149 447
151 449 3 3 2 -44 -1 -104 -3 -60 -7 -299 -8 -531 l-1 -423 132 0 133 0 1 38
c0 31 0 1178 -1 1280 l0 32 -194 0 -193 0 -116 -352 c-64 -194 -139 -426 -168
-515 -29 -89 -56 -160 -60 -157 -4 2 -9 14 -12 26 -4 21 -256 835 -293 951
l-16 47 -194 0 -194 0 0 -675z"/>
</g>
</svg>
